<svg width="57" height="57" viewBox="0 0 57 57" fill="none" xmlns="http://www.w3.org/2000/svg">
<path d="M26.4787 1.9693C27.3318 -0.656433 31.0466 -0.656433 31.8996 1.9693L34.9479 11.3509C35.3296 12.5252 36.4237 13.3202 37.6586 13.3202H47.523C50.2838 13.3202 51.4318 16.8531 49.1982 18.4759L41.2177 24.2741C40.2187 24.9997 39.8006 26.2862 40.1822 27.4604L43.2306 36.842C44.0836 39.4677 41.0786 41.6514 38.8447 40.0286L30.8645 34.2302C29.8655 33.5046 28.5129 33.5046 27.514 34.2302L19.5335 40.0286C17.2999 41.6514 14.2947 39.4677 15.1478 36.842L18.1961 27.4604C18.5776 26.2862 18.1596 24.9997 17.1608 24.2741L9.18029 18.4759C6.94668 16.8531 8.09461 13.3202 10.8555 13.3202H20.7199C21.9546 13.3202 23.0488 12.5252 23.4304 11.3509L26.4787 1.9693Z" fill="black"/>
</svg>
