<svg width="57" height="57" viewBox="0 0 57 57" fill="none" xmlns="http://www.w3.org/2000/svg">
<path fill-rule="evenodd" clip-rule="evenodd" d="M38 21.375C38 26.6216 33.7466 30.875 28.5 30.875C23.2533 30.875 19 26.6216 19 21.375C19 16.1283 23.2533 11.875 28.5 11.875C33.7466 11.875 38 16.1283 38 21.375ZM33.25 21.375C33.25 23.9984 31.1234 26.125 28.5 26.125C25.8766 26.125 23.75 23.9984 23.75 21.375C23.75 18.7516 25.8766 16.625 28.5 16.625C31.1234 16.625 33.25 18.7516 33.25 21.375Z" fill="#111111"/>
<path fill-rule="evenodd" clip-rule="evenodd" d="M28.5 2.375C14.0716 2.375 2.375 14.0716 2.375 28.5C2.375 42.9284 14.0716 54.625 28.5 54.625C42.9284 54.625 54.625 42.9284 54.625 28.5C54.625 14.0716 42.9284 2.375 28.5 2.375ZM7.125 28.5C7.125 33.4642 8.81731 38.0333 11.6565 41.6615C15.5621 36.5486 21.7224 33.25 28.6532 33.25C35.4939 33.25 41.5844 36.4636 45.4967 41.4635C48.2434 37.8677 49.875 33.3745 49.875 28.5C49.875 16.6949 40.3052 7.125 28.5 7.125C16.6949 7.125 7.125 16.6949 7.125 28.5ZM28.5 49.875C23.3932 49.875 18.7047 48.084 15.0282 45.096C18.0346 40.8054 23.0163 38 28.6532 38C34.2199 38 39.1478 40.7362 42.1653 44.9371C38.4605 48.0204 33.6967 49.875 28.5 49.875Z" fill="#111111"/>
</svg>
