<svg width="127" height="48" viewBox="0 0 127 48" fill="none" xmlns="http://www.w3.org/2000/svg">
<path d="M25.7432 24.3407C25.7432 22.5884 26.7894 21.3677 28.3883 21.3677C29.9872 21.3677 31.0334 22.5884 31.0334 24.3407C31.0334 26.0734 29.9872 27.3138 28.3883 27.3138C26.7894 27.3138 25.7432 26.0734 25.7432 24.3407Z" fill="#152C4F"/>
<path d="M39.2656 21.2889C37.7457 21.2889 36.7192 22.4702 36.7192 24.0848C36.7192 25.719 37.7654 26.9397 39.2656 26.9397C40.9237 26.9397 42.0291 25.6993 42.0291 24.0848C42.0291 22.49 40.9237 21.2889 39.2656 21.2889Z" fill="#152C4F"/>
<path d="M48.0767 24.3407C48.0767 22.5884 49.1229 21.3677 50.7218 21.3677C52.3207 21.3677 53.3669 22.5884 53.3669 24.3407C53.3669 26.0734 52.3207 27.3138 50.7218 27.3138C49.1229 27.3138 48.0767 26.0734 48.0767 24.3407Z" fill="#152C4F"/>
<path d="M64.1626 24.3604C64.1626 22.608 65.2285 21.3873 66.9063 21.3873C68.5842 21.3873 69.5909 22.6278 69.5909 24.3604C69.5909 26.093 68.5842 27.3137 66.9063 27.3137C65.2285 27.3137 64.1626 26.1127 64.1626 24.3604Z" fill="#152C4F"/>
<path fill-rule="evenodd" clip-rule="evenodd" d="M63.1579 44.9393C96.6973 44.9393 123.886 35.4231 123.886 23.6842C123.886 11.9454 96.6973 2.4292 63.1579 2.4292C29.6184 2.4292 2.4292 11.9454 2.4292 23.6842C2.4292 35.4231 29.6184 44.9393 63.1579 44.9393ZM21.8415 29.2237V14.5749H19.4332V29.2237H21.8415ZM23.3154 24.3407C23.3154 27.3335 25.3289 29.46 28.3885 29.46C31.4481 29.46 33.4615 27.3335 33.4615 24.3407C33.4615 21.348 31.4481 19.2216 28.3885 19.2216C25.3289 19.2216 23.3154 21.348 23.3154 24.3407ZM38.8511 29.0268C36.1072 29.0268 34.2715 26.9791 34.2715 24.1439C34.2715 21.289 36.1467 19.1822 38.93 19.1822C40.371 19.1822 41.5948 19.7926 42.187 20.8165L42.3252 19.4972H44.4571V28.7315C44.4571 31.9408 42.4437 34.0081 39.2853 34.0081C36.6007 34.0081 34.6465 32.3543 34.3307 29.8143H36.7587C36.8968 31.0942 37.9233 31.8227 39.4235 31.8227C41.1013 31.8227 42.1081 30.7594 42.1081 29.1646V27.5108C41.4961 28.4558 40.2723 29.0268 38.8511 29.0268ZM45.6488 24.3407C45.6488 27.3335 47.6623 29.46 50.7219 29.46C53.7815 29.46 55.7949 27.3335 55.7949 24.3407C55.7949 21.348 53.7815 19.2216 50.7219 19.2216C47.6623 19.2216 45.6488 21.348 45.6488 24.3407ZM59.8421 16.0714C59.8421 16.8786 59.1908 17.5087 58.4011 17.5087C57.5919 17.5087 56.9799 16.8786 56.9799 16.0714C56.9799 15.2837 57.5919 14.6537 58.4011 14.6537C59.1908 14.6537 59.8421 15.2837 59.8421 16.0714ZM59.6053 19.4972V29.2237H57.1971V19.4972H59.6053ZM61.7151 33.7325H64.0641V27.8848C64.676 28.889 65.9985 29.4796 67.4593 29.4796C70.3413 29.4796 72.0586 27.2745 72.0191 24.2423C71.9599 21.1905 70.2031 19.2019 67.4395 19.2019C65.9591 19.2019 64.6168 19.8517 64.0246 20.9739L63.8864 19.4972H61.7151V33.7325ZM76.539 29.4796C74.2097 29.4796 72.7095 28.2392 72.6306 26.3097H74.8217C74.8217 27.1563 75.4336 27.6485 76.4995 27.6485C77.3878 27.6485 78.1182 27.2942 78.1182 26.5263C78.1182 25.9749 77.7233 25.6796 77.0917 25.5024L75.3941 25.0693C73.5189 24.577 72.7885 23.5335 72.7885 22.2734C72.7885 20.4226 74.3479 19.2019 76.4403 19.2019C78.5524 19.2019 79.9934 20.4226 80.0724 22.3522H77.8813C77.8813 21.5055 77.289 20.9936 76.3811 20.9936C75.5125 20.9936 74.9796 21.4661 74.9796 22.1356C74.9796 22.7657 75.4731 23.0216 76.2034 23.2185L77.9208 23.6319C79.5197 24.0257 80.3882 24.9708 80.3882 26.3688C80.3882 28.2589 78.8288 29.4796 76.539 29.4796ZM85.3836 29.4796C86.7057 29.4796 87.9689 28.8692 88.5415 27.9636L88.6998 29.2237H90.9499V19.4972H88.5415V24.5967C88.5415 26.3491 87.8704 27.3335 86.2914 27.3335C85.0678 27.3335 84.219 26.7428 84.219 24.7346V19.4972H81.8105V25.5812C81.8105 27.9045 83.0738 29.4796 85.3836 29.4796ZM95.4838 23.6319V29.2237H93.0754V19.4972H95.2859L95.4047 20.5999C95.9773 19.7335 97.0038 19.2019 98.1483 19.2019C99.7668 19.2019 100.833 19.9107 101.366 21.0527C101.84 19.9107 103.005 19.2019 104.485 19.2019C106.854 19.2019 108.097 20.6196 108.097 22.8641V29.2237H105.768V23.4154C105.768 22.0372 105.018 21.3087 103.854 21.3087C102.708 21.3087 101.8 22.0569 101.8 23.6516V29.2237H99.451V23.4154C99.451 22.0372 98.7015 21.3087 97.5563 21.3087C96.4118 21.3087 95.4838 22.0569 95.4838 23.6319Z" fill="#152C4F"/>
</svg>
