<svg width="84" height="48" viewBox="0 0 84 48" fill="none" xmlns="http://www.w3.org/2000/svg">
<g clip-path="url(#clip0_270_93)">
<path d="M76.0619 46.7342V46.848C76.0385 46.9123 76.0103 46.9742 75.9776 47.0327L75.8572 47.2032L75.7368 47.3311C75.6112 47.4571 75.4688 47.5579 75.3154 47.6294H75.2552C75.1057 47.6999 74.9467 47.7384 74.7857 47.7432H69.9702C69.8417 47.7481 69.7139 47.7202 69.5954 47.6614C69.477 47.6024 69.3707 47.514 69.284 47.4022L64.023 40.9796L60.5678 47.1748L60.4956 47.2884L60.3752 47.4589H60.315H60.2548H60.1705C60.074 47.5561 59.9641 47.633 59.8455 47.6863L59.7251 47.7574C59.5741 47.8223 59.416 47.8606 59.2556 47.871H54.44C54.3116 47.8759 54.1837 47.8481 54.0653 47.7892C53.9468 47.7304 53.8406 47.6419 53.7538 47.53L51.96 45.1003L45.6516 47.7574C45.5041 47.8357 45.3438 47.8745 45.1821 47.871C44.9635 47.8781 44.7499 47.7923 44.5802 47.6294L44.4838 47.5158L41.4741 43.452C41.3537 43.9351 41.2574 44.4182 41.125 44.8729L41.0528 45.0719C41.032 45.1376 41.0036 45.1998 40.9685 45.2566L40.8963 45.3702L40.7638 45.5407L40.5953 45.7255C40.5022 45.8098 40.4012 45.8813 40.2943 45.9386L39.9452 46.4501C39.7796 46.5234 39.6044 46.5618 39.4275 46.5638H35.4788C35.3511 46.5715 35.2236 46.5462 35.1051 46.4898C34.9866 46.4333 34.8799 46.3471 34.7926 46.237L33.4924 44.4751L32.9265 46.6916C32.9131 46.7671 32.8886 46.8392 32.8543 46.9049L32.782 47.0896L32.7098 47.2032L32.5895 47.3737C32.5393 47.4425 32.4827 47.5044 32.4209 47.5584C32.3208 47.6378 32.2162 47.709 32.1079 47.7715L31.9514 47.871C31.7902 47.9472 31.6192 47.9905 31.4457 47.9989H24.2946C24.1642 48.0059 24.034 47.979 23.9134 47.9201C23.7927 47.8612 23.6845 47.7716 23.5964 47.6579L22.549 46.237H18.7568L18.6725 46.578C18.6579 46.6511 18.6377 46.7224 18.6123 46.7911C18.5796 46.8497 18.5514 46.9115 18.528 46.9758L18.4558 47.0896L18.3354 47.2601C18.2852 47.3288 18.2287 47.3908 18.1669 47.4448C18.0668 47.5241 17.9622 47.5954 17.8538 47.6579L17.6973 47.7574C17.5362 47.8336 17.3652 47.8768 17.1917 47.8853H12.7253C12.5968 47.8902 12.469 47.8622 12.3505 47.8034C12.2321 47.7445 12.1258 47.6561 12.0391 47.5442L10.6546 45.6828H6.52524C6.3976 45.6905 6.27011 45.6653 6.1516 45.6089C6.03308 45.5524 5.92642 45.4661 5.83905 45.356L0.216875 38.1662C0.261898 38.2199 0.314969 38.2633 0.373386 38.2942C0.26926 38.2212 0.182335 38.1186 0.12058 37.9957C0.0413462 37.8132 0 37.6111 0 37.406C0 37.201 0.0413462 36.9989 0.12058 36.8164C3.30029 29.1076 5.90647 21.0871 7.90974 12.8458V12.7463L7.51244 12.2063C7.51244 12.2063 7.57265 12.2063 7.60877 12.3058C7.47556 12.1614 7.38159 11.9737 7.33873 11.7663C7.29588 11.5589 7.30605 11.3412 7.36798 11.1406L8.68021 5.94014C8.78974 5.54768 8.99609 5.20277 9.27279 4.94962C9.54948 4.69646 9.88391 4.54661 10.2332 4.51924H15.0488L15.8313 1.42165C15.9423 1.0302 16.149 0.686338 16.4254 0.433446C16.7018 0.180554 17.0355 0.0299777 17.3843 0.00075282H21.8869C22.0207 -0.00539677 22.1539 0.0262009 22.2753 0.09292C22.3968 0.159638 22.5029 0.259564 22.5851 0.384403L24.1261 2.47314L24.2465 2.08949C24.3553 1.69386 24.5631 1.34639 24.8424 1.09277C25.1218 0.839158 25.4597 0.691273 25.8116 0.66858H41.7149C41.8483 0.665759 41.9806 0.698849 42.1016 0.765322C42.2225 0.831793 42.3291 0.929909 42.4132 1.05223L47.2287 7.6026L47.1445 2.14633C47.1512 1.90597 47.1995 1.66976 47.2864 1.45228C47.3734 1.23479 47.4971 1.04061 47.6501 0.881707C47.941 0.524909 48.3383 0.315956 48.7577 0.299153H53.5732C53.7275 0.293549 53.8803 0.336692 54.0158 0.424123C54.1512 0.511554 54.2644 0.640086 54.3437 0.796456C54.3228 0.739384 54.2944 0.686616 54.2594 0.640156L57.8711 5.48544L58.4851 3.05572C58.5917 2.6612 58.7973 2.31418 59.0746 2.06047C59.3519 1.80678 59.6878 1.65835 60.0381 1.63481H77.6149C77.7493 1.62809 77.8833 1.6579 78.0065 1.72194C78.1296 1.786 78.2386 1.88257 78.3252 2.00423L83.8149 9.43555L83.8871 9.53503C83.946 9.64195 83.9831 9.76355 83.9955 9.89026C83.9955 9.89026 83.9955 9.89026 83.9955 9.96131C84.0015 10.0654 84.0015 10.1698 83.9955 10.2739C83.9997 10.3543 83.9997 10.435 83.9955 10.5155L78.4696 32.2411L78.3974 32.4542L78.3131 32.6389C78.3131 32.6389 78.3131 32.71 78.2409 32.7526L78.1205 32.9231L77.9399 33.1079C77.8436 33.1931 77.7353 33.25 77.6389 33.321C77.5426 33.392 77.5306 33.4062 77.4824 33.4205C77.3192 33.5048 77.143 33.5484 76.9648 33.5483H74.557L75.5081 34.8271V34.9266C75.5692 35.0581 75.6061 35.2033 75.6164 35.3528L76.1461 46.0664V46.4501C76.1461 46.4501 76.1461 46.4501 76.1461 46.5496C76.1461 46.649 76.0619 46.6916 76.0619 46.7342Z" fill="black"/>
<path d="M1.30029 37.0863C4.51511 29.2891 7.15342 21.1788 9.18579 12.8457H12.9298C10.9513 21.1586 8.39854 29.2659 5.29721 37.0863H1.30029ZM25.4984 2.06107L24.1862 7.20476H40.0655L41.3777 2.06107H25.4984ZM13.3151 37.5837H17.7935C20.6024 32 22.8297 26.0364 24.4269 19.8224H20.4421C18.7875 26.0924 16.3792 32.0499 13.291 37.5127L13.3151 37.5837ZM21.1283 12.3485L19.804 17.5773H27.4005L23.199 34.1309H20.4541L19.1298 39.3171H26.2809L31.7948 17.5773H39.1746L40.5109 12.3485H21.1283ZM17.7574 16.4833L19.1058 11.1833H21.8868L23.211 5.98278H20.4541L21.658 1.47852H17.0712L15.8673 5.98278H9.90809L8.58384 11.1833H14.6032L7.50031 39.3456H11.9667L16.1562 22.8347L17.7333 24.6677L19.3345 18.3589L17.7574 16.4833ZM32.4448 19.9929C32.5601 26.0103 31.8611 32.0109 30.3742 37.7684H34.335C35.8304 32.0033 36.6408 26.021 36.7427 19.9929H32.4448ZM53.3082 1.67744H48.4325L48.5649 10.757H53.4527L53.3082 1.67744ZM43.1113 13.5989L41.7027 19.1688H45.0616L39.9451 39.3456L48.577 35.7081L50.1541 29.4703L46.7109 30.8912L51.1051 13.5846L43.1113 13.5989ZM54.0547 39.3171L60.0139 28.6178H55.1984L49.1789 39.3171H54.0547ZM59.7611 3.0273L54.2112 24.8523H71.7879L77.3258 3.0273H59.7611ZM68.5735 19.4103H60.2065L62.9755 8.45514H71.4027L68.6217 19.4103M64.0228 28.5751L64.5526 39.2745H69.3681L68.8264 28.5751H64.0228Z" fill="white"/>
</g>
<defs>
<clipPath id="clip0_270_93">
<rect width="84" height="48" fill="white"/>
</clipPath>
</defs>
</svg>
