<svg width="94" height="48" viewBox="0 0 94 48" fill="none" xmlns="http://www.w3.org/2000/svg">
<path d="M23.5955 23.5934L23.7861 23.5531H39.6436L45.6022 29.5117H29.514L23.5955 23.5934Z" fill="black"/>
<path d="M18.4905 23.553L2.4021 23.5531L8.3607 29.5117H18.4903L18.4905 23.553Z" fill="black"/>
<path d="M51.1394 6.43652H53.6105V14.1151H57.8548V16.1953H51.1394V6.43652Z" fill="black"/>
<path d="M62.3412 16.4046C61.5128 16.4046 60.7872 16.2557 60.1631 15.9578C59.5395 15.6507 59.0556 15.232 58.7112 14.7014C58.376 14.1616 58.2085 13.5427 58.2085 12.8446C58.2085 12.1465 58.376 11.5322 58.7112 11.0017C59.0556 10.4619 59.5395 10.0431 60.1631 9.7453C60.7872 9.43808 61.5128 9.28455 62.3412 9.28455C63.1696 9.28455 63.8958 9.43808 64.5193 9.7453C65.1428 10.0431 65.6221 10.4619 65.9571 11.0017C66.3016 11.5322 66.4738 12.1465 66.4738 12.8446C66.4738 13.5427 66.3016 14.1616 65.9571 14.7014C65.6221 15.232 65.1428 15.6507 64.5193 15.9578C63.8958 16.2557 63.1696 16.4046 62.3412 16.4046ZM62.3412 14.492C62.8344 14.492 63.2256 14.3477 63.514 14.0592C63.8117 13.7614 63.9606 13.3565 63.9606 12.8446C63.9606 12.3327 63.8117 11.9325 63.514 11.6439C63.2256 11.3461 62.8344 11.1972 62.3412 11.1972C61.8479 11.1972 61.4527 11.3461 61.1544 11.6439C60.866 11.9325 60.7218 12.3327 60.7218 12.8446C60.7218 13.3565 60.866 13.7614 61.1544 14.0592C61.4527 14.3477 61.8479 14.492 62.3412 14.492Z" fill="black"/>
<path d="M71.0891 19.4063C70.6425 19.4063 70.1912 19.3644 69.7346 19.2806C69.288 19.1969 68.9022 19.0851 68.5764 18.9456V17.2423C69.3114 17.5587 70.1491 17.717 71.0891 17.717C71.7685 17.717 72.2572 17.5774 72.5549 17.2981C72.862 17.0189 73.0155 16.6095 73.0155 16.0696V15.6647C72.7458 15.8974 72.4108 16.0789 72.0108 16.2092C71.6197 16.3395 71.2005 16.4046 70.7539 16.4046C70.047 16.4046 69.4229 16.2557 68.8836 15.9578C68.3435 15.6601 67.9203 15.2412 67.6125 14.7014C67.3148 14.1616 67.166 13.5427 67.166 12.8446C67.166 12.1372 67.3148 11.5136 67.6125 10.9738C67.911 10.434 68.3294 10.0199 68.8695 9.73128C69.4089 9.43347 70.0284 9.28455 70.7259 9.28455C71.6851 9.28455 72.4762 9.57773 73.0996 10.1641V9.49395H75.4727V15.7345C75.4727 16.898 75.1149 17.8008 74.398 18.443C73.6904 19.0851 72.5876 19.4063 71.0891 19.4063ZM71.368 14.5059C71.7499 14.5059 72.0897 14.4082 72.3874 14.2128C72.6851 14.0173 72.8947 13.7568 73.0155 13.4309V12.2583C72.8853 11.9325 72.671 11.6765 72.3733 11.4904C72.0756 11.2949 71.7405 11.1972 71.368 11.1972C70.866 11.1972 70.4609 11.3461 70.1538 11.6439C69.8467 11.9325 69.6932 12.3281 69.6932 12.8306C69.6932 13.3425 69.8467 13.752 70.1538 14.0592C70.4609 14.357 70.866 14.5059 71.368 14.5059Z" fill="black"/>
<path d="M80.2288 16.4046C79.4004 16.4046 78.6742 16.2557 78.0507 15.9578C77.4272 15.6507 76.9433 15.232 76.5988 14.7014C76.2637 14.1616 76.0962 13.5427 76.0962 12.8446C76.0962 12.1465 76.2637 11.5322 76.5988 11.0017C76.9433 10.4619 77.4272 10.0431 78.0507 9.7453C78.6742 9.43808 79.4004 9.28455 80.2288 9.28455C81.0572 9.28455 81.7828 9.43808 82.4069 9.7453C83.0305 10.0431 83.5097 10.4619 83.8448 11.0017C84.1893 11.5322 84.3615 12.1465 84.3615 12.8446C84.3615 13.5427 84.1893 14.1616 83.8448 14.7014C83.5097 15.232 83.0305 15.6507 82.4069 15.9578C81.7828 16.2557 81.0572 16.4046 80.2288 16.4046ZM80.2288 14.492C80.7221 14.492 81.1127 14.3477 81.4016 14.0592C81.6994 13.7614 81.8482 13.3565 81.8482 12.8446C81.8482 12.3327 81.6994 11.9325 81.4016 11.6439C81.1127 11.3461 80.7221 11.1972 80.2288 11.1972C79.7356 11.1972 79.3397 11.3461 79.042 11.6439C78.7536 11.9325 78.6094 12.3327 78.6094 12.8446C78.6094 13.3565 78.7536 13.7614 79.042 14.0592C79.3397 14.3477 79.7356 14.492 80.2288 14.492Z" fill="black"/>
<path d="M51.1394 19.787H53.6105V29.5458H51.1394V19.787Z" fill="black"/>
<path d="M54.8616 22.8445H57.2347V23.5146C57.8582 22.9283 58.6499 22.6351 59.6085 22.6351C60.306 22.6351 60.9255 22.784 61.4648 23.0819C62.0048 23.3704 62.4234 23.7845 62.7218 24.3243C63.0196 24.8548 63.1684 25.4739 63.1684 26.1812C63.1684 26.8792 63.0196 27.5028 62.7218 28.0519C62.4234 28.5917 62.0048 29.0107 61.4648 29.3084C60.9348 29.6063 60.3153 29.7552 59.6085 29.7552C59.1612 29.7552 58.7333 29.6854 58.3241 29.5458C57.9236 29.4155 57.5885 29.234 57.3189 29.0013V32.6033H54.8616V22.8445ZM58.9663 27.8426C59.4689 27.8426 59.8734 27.6937 60.1805 27.3958C60.4876 27.098 60.6412 26.6931 60.6412 26.1812C60.6412 25.6693 60.4876 25.2691 60.1805 24.9805C59.8734 24.6827 59.4689 24.5338 58.9663 24.5338C58.5939 24.5338 58.2587 24.6315 57.961 24.827C57.6632 25.0131 57.449 25.2691 57.3189 25.5948V26.7815C57.449 27.1073 57.6632 27.3678 57.961 27.5633C58.2587 27.7495 58.5939 27.8426 58.9663 27.8426Z" fill="black"/>
<path d="M66.8316 29.7552C66.2915 29.7552 65.7281 29.6993 65.142 29.5876C64.556 29.4853 64.09 29.3364 63.7462 29.141V27.34C64.1273 27.5633 64.5833 27.7495 65.114 27.8984C65.654 28.038 66.1473 28.1078 66.5939 28.1078C66.9197 28.1078 67.1573 28.0845 67.3062 28.038C67.455 27.9915 67.5291 27.8984 67.5291 27.7587C67.5291 27.6471 67.4784 27.5587 67.3756 27.4936C67.2828 27.4191 67.1059 27.3446 66.8456 27.2701C66.5939 27.1864 66.3009 27.098 65.9657 27.0049C65.3977 26.8373 64.9511 26.6651 64.6254 26.4883C64.2996 26.3115 64.0579 26.0882 63.8997 25.8182C63.7415 25.5483 63.6621 25.2085 63.6621 24.799C63.6621 24.0731 63.9458 23.5332 64.5138 23.1796C65.0906 22.8166 65.8776 22.6351 66.8729 22.6351C67.3569 22.6351 67.8642 22.6863 68.3949 22.7886C68.9349 22.8911 69.3395 23.026 69.6098 23.1936V24.9666C69.33 24.7804 68.9582 24.6268 68.493 24.5059C68.0364 24.3849 67.6085 24.3243 67.208 24.3243C66.8916 24.3243 66.6453 24.3569 66.4684 24.4221C66.2915 24.4779 66.2034 24.5804 66.2034 24.7293C66.2034 24.8689 66.2915 24.9759 66.4684 25.0503C66.6453 25.1248 66.9617 25.2179 67.4176 25.3296C67.7153 25.404 67.8415 25.4366 67.7947 25.4273C68.3902 25.5855 68.8508 25.7623 69.1765 25.9578C69.5023 26.1533 69.7306 26.3859 69.8607 26.6559C70.0003 26.9164 70.0704 27.2515 70.0704 27.661C70.0704 28.3033 69.7913 28.8152 69.2326 29.1967C68.6832 29.569 67.8829 29.7552 66.8316 29.7552Z" fill="black"/>
<path d="M73.7393 29.7551C72.8181 29.7551 72.1246 29.4992 71.6593 28.9873C71.2034 28.4754 70.9751 27.8007 70.9751 26.963V22.8445H73.4323V26.6837C73.4323 27.4562 73.7814 27.8425 74.479 27.8425C74.796 27.8425 75.0844 27.768 75.3447 27.6191C75.6058 27.4702 75.8194 27.2515 75.9869 26.963V22.8445H78.4441V29.5458H76.071V28.8197C75.7826 29.1269 75.4335 29.3596 75.0236 29.5178C74.6145 29.676 74.1859 29.7551 73.7393 29.7551Z" fill="black"/>
<path d="M79.7024 22.8445H81.978V23.5705C82.257 23.2727 82.5781 23.0447 82.9412 22.8864C83.3043 22.7188 83.6908 22.6351 84.1001 22.6351C84.6026 22.6351 85.0032 22.7095 85.3009 22.8584C85.6079 23.0074 85.8543 23.2307 86.0405 23.5286C86.3196 23.2493 86.6593 23.0307 87.0598 22.8724C87.4597 22.7142 87.8649 22.6351 88.274 22.6351C89.1586 22.6351 89.7867 22.8631 90.1592 23.3191C90.5317 23.7659 90.7179 24.4128 90.7179 25.2598V29.5458H88.3722V25.6088C88.3722 25.2365 88.3021 24.9666 88.1626 24.799C88.0231 24.6315 87.7901 24.5477 87.4644 24.5477C87.0458 24.5477 86.7061 24.6967 86.4457 24.9944C86.455 25.1527 86.4597 25.3947 86.4597 25.7205V29.5458H84.1141V25.5111C84.1141 25.1667 84.0533 24.92 83.9324 24.7711C83.8117 24.6222 83.5974 24.5477 83.2903 24.5477C82.8157 24.5477 82.4058 24.813 82.0621 25.3435V29.5458H79.7024V22.8445Z" fill="black"/>
<path d="M23.7863 23.5531L23.5955 23.5936L29.5137 29.5118V45.6H24.4489L18.4902 39.6414H23.5551V23.5531H18.4902V18.4884H23.5551V2.40002L29.5137 8.35864V18.4883L23.5551 18.4884V23.5531L23.7863 23.5531Z" fill="#555555"/>
<path d="M39.6438 23.5531L45.6024 29.5118V24.4469L39.6438 18.4883V23.5531Z" fill="#555555"/>
<path d="M51.4885 34.1266H55.1044C56.128 34.1266 56.9237 34.3686 57.4918 34.8526C58.0685 35.3366 58.3575 36.0532 58.3575 37.0026C58.3575 37.9612 58.0732 38.6779 57.5058 39.1527C56.9377 39.6273 56.1373 39.8646 55.1044 39.8646H52.5775V43.8854H51.4885V34.1266ZM55.0207 38.9432C55.7188 38.9432 56.2682 38.8036 56.668 38.5243C57.0685 38.2359 57.2681 37.7286 57.2681 37.0026C57.2681 36.2673 57.0685 35.76 56.668 35.4809C56.2682 35.1923 55.7188 35.0481 55.0207 35.0481H52.5775V38.9432H55.0207Z" fill="#555555"/>
<path d="M59.7507 33.5681H60.8255V43.8853H59.7507V33.5681Z" fill="#555555"/>
<path d="M65.486 44.0948C64.5922 44.0948 63.9033 43.8528 63.4193 43.3688C62.9447 42.8849 62.7078 42.238 62.7078 41.4282V37.1841H63.7825V41.4841C63.7825 42.6569 64.3919 43.2432 65.6115 43.2432C66.1235 43.2432 66.57 43.1315 66.9519 42.9082C67.3424 42.6847 67.6915 42.331 67.9986 41.8471V37.1841H69.074V43.8854H68.0266V42.8801C67.4218 43.6899 66.5747 44.0948 65.486 44.0948Z" fill="#555555"/>
<path d="M73.3574 44.0949C72.9196 44.0949 72.4497 44.0297 71.947 43.8994C71.4444 43.7783 71.0538 43.6248 70.7742 43.4386V42.5312C71.1279 42.7453 71.5332 42.9174 71.9891 43.0477C72.4543 43.1781 72.9009 43.2431 73.3294 43.2431C73.9062 43.2431 74.3207 43.164 74.5718 43.0058C74.8327 42.8383 74.9629 42.5917 74.9629 42.266C74.9629 42.0146 74.9068 41.8192 74.7953 41.6796C74.6832 41.5306 74.4976 41.4003 74.2366 41.2887C73.9763 41.1769 73.5711 41.0467 73.0224 40.8978C72.4824 40.7489 72.0498 40.5953 71.724 40.4371C71.4077 40.2694 71.1653 40.0601 70.9978 39.8087C70.8302 39.5575 70.7468 39.2364 70.7468 38.8455C70.7468 38.2405 70.9885 37.7798 71.4724 37.4634C71.9657 37.1375 72.6172 36.9747 73.4269 36.9747C73.8641 36.9747 74.274 37.0166 74.6558 37.1003C75.0464 37.1748 75.3721 37.2818 75.6331 37.4215V38.3289C75.3627 38.18 75.037 38.0637 74.6558 37.9799C74.274 37.8868 73.8781 37.8403 73.469 37.8403C72.9289 37.8403 72.5198 37.9194 72.24 38.0776C71.961 38.2359 71.8215 38.4918 71.8215 38.8455C71.8215 39.0875 71.8682 39.2736 71.961 39.4039C72.0638 39.5342 72.2447 39.6552 72.5057 39.7669C72.7754 39.8693 73.2039 39.9996 73.79 40.1578C74.6278 40.3905 75.2092 40.6651 75.5349 40.9816C75.8701 41.2887 76.0376 41.7168 76.0376 42.266C76.0376 42.8336 75.8147 43.2804 75.3674 43.6062C74.9302 43.9319 74.2599 44.0949 73.3574 44.0949Z" fill="#555555"/>
</svg>
