<svg width="92" height="39" viewBox="0 0 92 39" fill="none" xmlns="http://www.w3.org/2000/svg">
<rect width="92" height="39" fill="white"/>
<path d="M46.144 12.8664C46.5223 12.8611 46.844 12.79 46.8388 12.3991V12.3405C46.844 11.9514 46.5223 11.8803 46.144 11.875C45.764 11.8803 45.4423 11.9514 45.4476 12.3405V12.3991C45.4423 12.79 45.764 12.8611 46.144 12.8664Z" fill="#394149"/>
<path d="M32.3131 12.081C32.3131 11.9673 32.223 11.8767 32.1098 11.8767H30.9802V12.2836H32.1098C32.1664 12.2836 32.2141 12.264 32.253 12.2249C32.2936 12.1841 32.3131 12.1361 32.3131 12.081Z" fill="#394149"/>
<path d="M38.6717 11.8716L38.997 12.577H38.3447L38.6717 11.8716Z" fill="#394149"/>
<path d="M53.1847 11.8716L53.5101 12.577H52.8577L53.1847 11.8716Z" fill="#394149"/>
<path d="M30.0763 26.7248L29.5955 25.6821L29.1121 26.7248H30.0763Z" fill="#394149"/>
<path d="M41.4228 26.4254C41.4228 26.78 41.2215 27.0715 40.8662 27.0715H39.3662V25.7793H40.8662C41.2215 25.7793 41.4228 26.0682 41.4228 26.4254Z" fill="#394149"/>
<path d="M45.2222 25.6821L45.7031 26.7248H44.7388L45.2222 25.6821Z" fill="#394149"/>
<path d="M51.0656 25.6899C51.2328 25.6899 51.3661 25.8239 51.3661 25.992C51.3661 26.0734 51.3373 26.1444 51.2772 26.2047C51.2197 26.2626 51.1492 26.2914 51.0656 26.2914H49.3958V25.6899H51.0656Z" fill="#394149"/>
<path d="M56.5899 26.4254C56.5899 26.78 56.3884 27.0715 56.0329 27.0715H54.5327V25.7793H56.0329C56.3884 25.7793 56.5899 26.0682 56.5899 26.4254Z" fill="#394149"/>
<path d="M23.7274 19.8442L21.9846 15.8H18.9946V22.5403H21.173V18.8997L22.7449 22.5403H24.6927L26.2817 18.8997V22.5403H28.4516V15.8H25.5555L23.7274 19.8442Z" fill="#394149"/>
<path d="M37.3423 22.5403V20.866H32.5327V19.9902H37.1459V18.3502H32.5327V17.483H37.2825V15.8H30.2773V22.5403H37.3423Z" fill="#394149"/>
<path d="M39.18 21.3469C39.8464 22.2141 41.0338 22.6434 42.4605 22.6434C43.5319 22.6434 44.3172 22.4247 44.8643 22.0779C44.9584 22.0182 45.0456 21.9547 45.1259 21.8878L45.1857 22.5404H47.0224V18.5478H42.563V19.9989H44.9465C44.936 20.0676 44.8995 20.1754 44.8472 20.2781C44.8145 20.3423 44.7756 20.4044 44.7329 20.4539C44.4852 20.7458 43.8273 21.0034 42.9731 21.0034C42.0846 21.0034 41.5122 20.7716 41.2046 20.411C40.9996 20.1448 40.88 19.767 40.88 19.2003C40.88 18.6079 40.9996 18.2043 41.2303 17.9382C41.5634 17.5604 42.1273 17.3972 42.956 17.3972C43.6992 17.3972 44.2118 17.5689 44.451 17.7836C44.6048 17.9124 44.7244 18.0927 44.75 18.2129H46.9626C46.9595 18.1337 46.9481 18.0368 46.9291 17.9337C46.8966 17.7575 46.8416 17.5628 46.7661 17.4058C46.2364 16.3239 45.0063 15.6799 42.9133 15.6799C41.0936 15.6799 39.872 16.238 39.1971 17.0795C38.7529 17.6548 38.5479 18.376 38.5479 19.1831C38.5479 20.0761 38.7871 20.8403 39.18 21.3469Z" fill="#394149"/>
<path d="M41.158 19.2002C41.158 18.6399 41.2719 18.3159 41.4392 18.1223C41.6907 17.8378 42.1496 17.6763 42.9561 17.6763C43.6732 17.6763 44.1023 17.8447 44.2661 17.9917L44.2696 17.9949L44.2733 17.998C44.3296 18.0451 44.3811 18.1033 44.42 18.1599C44.4585 18.2159 44.4739 18.2548 44.4777 18.2684H42.2853V20.2779H44.517C44.4371 20.3687 44.2656 20.482 43.993 20.573C43.7217 20.6636 43.3735 20.7241 42.9732 20.7241C42.129 20.7241 41.6543 20.5045 41.4203 20.2344C41.2673 20.0328 41.158 19.7237 41.158 19.2002Z" fill="#394149"/>
<path d="M52.8262 18.2837L52.1897 19.505H53.4275L52.8262 18.2837Z" fill="#394149"/>
<path fill-rule="evenodd" clip-rule="evenodd" d="M54.601 21.2953L55.1905 22.5403H57.6595L54.2762 15.8H51.517L47.9375 22.5403H50.3552L50.9788 21.2953H54.601ZM51.7305 19.7841L52.5763 18.1613L52.8326 17.5431L53.0718 18.1527L53.875 19.7841H51.7305Z" fill="#394149"/>
<path fill-rule="evenodd" clip-rule="evenodd" d="M72.4272 34.2113H72.4235C72.3759 34.2113 72.3283 34.211 72.2808 34.2105V34.2113H20.0272C15.4162 34.2113 11.3032 32.0682 8.62034 28.7191H16.3192V27.7384H7.89898C6.64284 25.8739 5.80113 23.7044 5.50673 21.3635H16.3192V20.3828H5.41629C5.39908 20.0907 5.39038 19.7964 5.39038 19.5C5.39038 17.5585 5.76458 15.7048 6.44451 14.0078H16.3192V13.0271H6.87972C7.91413 10.9087 9.44039 9.07679 11.309 7.68204H63.7085C64.3619 7.19441 65.0572 6.76019 65.7876 6.38579C65.5904 6.48669 65.3964 6.59186 65.2049 6.70125H12.8052C14.9362 5.48396 17.4009 4.78882 20.0271 4.78882H72.2808V4.78951C72.3296 4.78903 72.3784 4.78882 72.4272 4.78882C80.5107 4.78882 87.064 11.3752 87.064 19.5C87.064 27.6248 80.5107 34.2113 72.4272 34.2113ZM77.8696 26.3998C78.5249 24.4154 78.916 22.0585 78.916 19.5C78.916 17.1149 78.5756 14.905 77.9992 13.0087C77.9284 12.7771 77.8546 12.5503 77.7776 12.3284C77.6487 11.9588 77.5104 11.6029 77.3639 11.2618C77.1662 10.8012 76.9534 10.3677 76.7274 9.96411C75.6597 8.05984 74.4418 7.03426 73.3053 6.68899V11.2618H76.2943C76.5472 11.8041 76.7781 12.3946 76.9822 13.0271H73.3053V18.6173H77.9241C77.9347 18.9083 77.9403 19.2026 77.9403 19.5C77.9403 19.7975 77.9347 20.0918 77.9241 20.3827H73.3053V25.973H76.9815C76.7781 26.6055 76.5472 27.196 76.2943 27.7383H73.3053V32.3112C74.4418 31.966 75.6597 30.9403 76.7274 29.036C76.9534 28.6324 77.1668 28.1989 77.3639 27.7383C77.546 27.3143 77.715 26.8674 77.8696 26.3998ZM79.8335 13.0271C80.3023 14.7312 80.5921 16.6207 80.6578 18.6173H85.2778C85.142 16.5906 84.5418 14.6917 83.5842 13.0271H79.8335ZM82.3632 11.2618H79.2596C78.6964 9.77829 77.9854 8.48789 77.1643 7.45792C79.2045 8.2693 80.9889 9.58908 82.3632 11.2618ZM71.5491 6.6888V11.2618H67.4899C67.6876 10.8012 67.9004 10.3677 68.127 9.96411C69.1941 8.05952 70.4126 7.03382 71.5491 6.6888ZM67.6895 7.45785C66.8684 8.48783 66.1581 9.77823 65.5948 11.2618H62.4905C63.865 9.58901 65.6499 8.26918 67.6895 7.45785ZM65.0203 13.0271H59.4001V14.0078H60.7601C60.0991 15.4232 59.6858 16.9784 59.576 18.6173H64.196C64.2624 16.6207 64.5515 14.7312 65.0203 13.0271ZM71.5491 13.0271H66.8496C66.3477 14.6829 66.0266 16.5769 65.954 18.6173H71.5491V13.0271ZM80.6578 20.3827C80.5921 22.3794 80.3023 24.2689 79.8335 25.973H83.5842C84.5418 24.3084 85.142 22.4094 85.2778 20.3827H80.6578ZM66.8496 25.973C66.3477 24.3172 66.0266 22.4232 65.954 20.3827H71.5491V25.973H66.8496ZM65.0203 25.973C64.5515 24.2689 64.2624 22.3794 64.196 20.3827H59.576C59.7118 22.4094 60.3118 24.3084 61.2697 25.973H65.0203ZM79.2596 27.7383C78.6964 29.2218 77.9854 30.5121 77.1649 31.5421C79.2045 30.7307 80.9889 29.411 82.3632 27.7383H79.2596ZM67.4899 27.7383H71.5491V32.3114C70.4126 31.9663 69.1941 30.9406 68.127 29.036C67.9004 28.6324 67.6876 28.1989 67.4899 27.7383ZM65.5948 27.7383L59.4001 27.7384V28.7191H63.3843C64.606 29.9297 66.0667 30.8969 67.6895 31.5422C66.8684 30.5123 66.1581 29.2219 65.5948 27.7383ZM46.1439 11.1182C45.2494 11.12 44.5175 11.3794 44.5211 12.2837V12.4578C44.5175 13.3604 45.2494 13.6216 46.1439 13.6234C47.0366 13.6216 47.7685 13.3604 47.7649 12.4578V12.2837C47.7649 11.3811 47.0383 11.1182 46.1439 11.1182ZM18.3549 11.1768V13.5647H19.2812V11.1768H18.3549ZM22.0901 12.4419L21.0472 11.1768H19.7726V13.5647H20.6989V12.1061L21.9752 13.5647H23.0182V11.1768H22.0901V12.4419ZM25.3675 11.9373V13.5683H24.4413V11.9373H23.34V11.1804H26.4688V11.9373H25.3675ZM26.78 13.5683H29.5607V12.9553H27.7063V12.6498H29.5607V12.0972H27.7063V11.7916H29.5607V11.1804H26.78V13.5683ZM30.0538 13.5665V11.1786H32.3431C32.8327 11.1733 33.2482 11.5873 33.2411 12.0812C33.2411 12.2606 33.1934 12.4241 33.0979 12.5698C33.0042 12.7137 32.8787 12.8239 32.7231 12.8967L33.2411 13.5665H32.2547L31.8075 12.9838H30.9802V13.5665H30.0538ZM35.8468 12.4419L34.8038 11.1768H33.5292V13.5647H34.4556V12.1061L35.7319 13.5647H36.7748V11.1768H35.8468V12.4419ZM37.8885 13.5683H36.8456L38.1201 11.1804H39.2214L40.496 13.5683H39.453L39.2656 13.1597H38.0759L37.8885 13.5683ZM41.9101 13.5683V11.9373H43.0114V11.1804H39.8826V11.9373H40.9839V13.5683H41.9101ZM43.3226 13.5647V11.1768H44.2489V13.5647H43.3226ZM49.317 11.1768L50.36 12.4419V11.1768H51.2881V13.5647H50.2451L48.9688 12.1061V13.5647H48.0425V11.1768H49.317ZM51.3588 13.5683H52.4017L52.5891 13.1597H53.7787L53.9664 13.5683H55.0091L53.7349 11.1804H52.6333L51.3588 13.5683ZM55.0817 13.5647V11.1768H56.008V12.8078H57.8624V13.5647H55.0817ZM20.755 25.4746C20.3291 25.4746 19.8064 25.5377 19.8064 25.8187C19.8064 25.9737 20.2324 25.9947 20.7837 26.0209L20.7898 26.0212C21.7694 26.0711 23.1408 26.1409 23.1383 27.0242C23.1383 28.0328 21.9884 28.2718 20.755 28.2718C19.5242 28.2692 18.5025 28.1195 18.3718 27.0242H19.8064C19.9632 27.2974 20.3264 27.3683 20.755 27.3683C21.181 27.3683 21.7036 27.2974 21.7036 27.0242C21.7036 26.8693 21.2777 26.8456 20.7263 26.8194L20.7202 26.8191C19.7406 26.7692 18.3691 26.6994 18.3718 25.8187C18.3718 24.8101 19.5216 24.5685 20.755 24.5685C21.9858 24.5763 23.0076 24.7155 23.1383 25.8187H21.7036C21.5468 25.5403 21.1836 25.4746 20.755 25.4746ZM26.1774 25.7793V28.1904H24.8081V25.7793H23.1801V24.6604H27.8054V25.7793H26.1774ZM26.896 28.1904H28.4378L28.7148 27.5863H30.4735L30.7505 28.1904H32.2923L30.4081 24.6604H28.7801L26.896 28.1904ZM34.2835 24.6552L35.8253 26.5252V24.6552H37.1972V28.1852H35.6554L33.7687 26.0288V28.1852H32.3994V24.6552H34.2835ZM37.9968 24.6604V28.1904H41.1222C42.0865 28.2035 42.8025 27.3841 42.7946 26.4254C42.8025 25.4615 42.0865 24.6473 41.1222 24.6604H37.9968ZM44.0647 28.1904H42.5229L44.407 24.6604H46.035L47.9191 28.1904H46.3773L46.1003 27.5863H44.3417L44.0647 28.1904ZM48.0263 24.6578V28.1878H49.3956V27.3263H50.6186L51.2797 28.1878H52.7378L51.9722 27.1976C52.2022 27.0899 52.3877 26.9271 52.5262 26.7143C52.6673 26.499 52.7378 26.2573 52.7378 25.992C52.7483 25.2619 52.1342 24.6499 51.4103 24.6578H48.0263ZM53.1638 28.1904V24.6604H56.289C57.2534 24.6473 57.9694 25.4615 57.9619 26.4254C57.9694 27.3841 57.2534 28.2035 56.289 28.1904H53.1638ZM28.7293 22.8196H26.0038V20.2314L24.8741 22.8196H22.5625L21.4507 20.2446V22.8196H18.7167V15.5209H22.1669L23.7333 19.1558L25.3765 15.5209H28.7293V22.8196ZM37.6202 22.8196H29.9996V15.5209H37.5605V17.7622H32.8106V18.071H37.4238V20.2694H32.8106V20.5868H37.6202V22.8196ZM47.3003 22.8196H44.9323L44.8926 22.3862C44.2989 22.7251 43.4953 22.9226 42.4605 22.9226C40.9884 22.9226 39.7001 22.4801 38.9606 21.5181C38.5206 20.9507 38.2701 20.1212 38.2701 19.1831C38.2701 18.3284 38.4876 17.5428 38.9776 16.9082L38.9792 16.9062L38.9808 16.9042C39.7252 15.976 41.0406 15.4006 42.9133 15.4006C45.0537 15.4006 46.4178 16.0618 47.0154 17.2825L47.0159 17.2834L47.0163 17.2843C47.1553 17.5736 47.2304 17.9557 47.2402 18.2017L47.2429 18.2685H47.3003V22.8196ZM51.15 21.5745L50.5264 22.8196H47.4744L51.3504 15.5209H54.4477L58.1108 22.8196H55.0147L54.4258 21.5745H51.15ZM18.3196 31.8084H58.0827V30.8277H18.3196V31.8084Z" fill="#394149"/>
<path fill-rule="evenodd" clip-rule="evenodd" d="M20.0271 1.25806H72.427C82.4507 1.25806 90.5767 9.42522 90.5767 19.5C90.5767 29.5748 82.4507 37.7419 72.427 37.7419H20.0271C10.0033 37.7419 1.87744 29.5748 1.87744 19.5C1.87744 9.42522 10.0033 1.25806 20.0271 1.25806ZM20.0271 3.02344C10.9734 3.02344 3.63389 10.4002 3.63389 19.5C3.63389 28.5998 10.9734 35.9766 20.0271 35.9766H72.427C81.4806 35.9766 88.8199 28.5998 88.8199 19.5C88.8199 10.4002 81.4806 3.02344 72.427 3.02344H20.0271Z" fill="#394149"/>
</svg>
