<svg width="68" height="48" viewBox="0 0 68 48" fill="none" xmlns="http://www.w3.org/2000/svg">
<path d="M5.49534 43.5088V33.7297H3.89209V43.5088H5.49534Z" fill="#152C4F"/>
<path d="M6.47656 40.2491C6.47656 42.2469 7.817 43.6664 9.85389 43.6664C11.8908 43.6664 13.2312 42.2469 13.2312 40.2491C13.2312 38.2512 11.8908 36.8317 9.85389 36.8317C7.817 36.8317 6.47656 38.2512 6.47656 40.2491ZM8.09294 40.2491C8.09294 39.0792 8.78946 38.2643 9.85389 38.2643C10.9183 38.2643 11.6148 39.0792 11.6148 40.2491C11.6148 41.4057 10.9183 42.2337 9.85389 42.2337C8.78946 42.2337 8.09294 41.4057 8.09294 40.2491Z" fill="#152C4F"/>
<path d="M13.7705 40.1177C13.7705 42.0104 14.9926 43.3774 16.8193 43.3774C17.7655 43.3774 18.5802 42.9962 18.9876 42.3653V43.4694C18.9876 44.534 18.3174 45.2438 17.2004 45.2438C16.2016 45.2438 15.5183 44.7575 15.4263 43.9031H13.8099C14.0202 45.5987 15.3212 46.7028 17.1084 46.7028C19.211 46.7028 20.5514 45.3226 20.5514 43.1802V37.0158H19.1322L19.0402 37.8964C18.6459 37.2129 17.8312 36.8054 16.8718 36.8054C15.0189 36.8054 13.7705 38.2118 13.7705 40.1177ZM15.4 40.0782C15.4 39.0004 16.0834 38.2118 17.0953 38.2118C18.1992 38.2118 18.935 39.0136 18.935 40.0782C18.935 41.156 18.1992 41.9841 17.0953 41.9841C16.0965 41.9841 15.4 41.1692 15.4 40.0782Z" fill="#152C4F"/>
<path d="M21.3447 40.2491C21.3447 42.2469 22.6852 43.6664 24.722 43.6664C26.7589 43.6664 28.0994 42.2469 28.0994 40.2491C28.0994 38.2512 26.7589 36.8317 24.722 36.8317C22.6852 36.8317 21.3447 38.2512 21.3447 40.2491ZM22.9611 40.2491C22.9611 39.0792 23.6576 38.2643 24.722 38.2643C25.7865 38.2643 26.483 39.0792 26.483 40.2491C26.483 41.4057 25.7865 42.2337 24.722 42.2337C23.6576 42.2337 22.9611 41.4057 22.9611 40.2491Z" fill="#152C4F"/>
<path d="M29.8344 35.6882C30.36 35.6882 30.7937 35.2676 30.7937 34.7287C30.7937 34.2029 30.36 33.7823 29.8344 33.7823C29.2956 33.7823 28.8882 34.2029 28.8882 34.7287C28.8882 35.2676 29.2956 35.6882 29.8344 35.6882ZM29.0328 43.5088H30.636V37.0157H29.0328V43.5088Z" fill="#152C4F"/>
<path d="M32.0405 46.5186H33.6043V42.6149C34.0117 43.2852 34.8922 43.6796 35.8646 43.6796C37.7833 43.6796 38.9266 42.2075 38.9002 40.1833C38.8609 38.146 37.6913 36.8185 35.8515 36.8185C34.8659 36.8185 33.9723 37.2522 33.578 38.0014L33.486 37.0157H32.0405V46.5186ZM33.67 40.2622C33.67 39.0924 34.3797 38.2774 35.4967 38.2774C36.6137 38.2774 37.2839 39.1055 37.2839 40.2622C37.2839 41.4188 36.6137 42.2337 35.4967 42.2337C34.3797 42.2337 33.67 41.432 33.67 40.2622Z" fill="#152C4F"/>
<path d="M39.3076 41.5634C39.3602 42.8515 40.3589 43.6796 41.9096 43.6796C43.434 43.6796 44.4722 42.8647 44.4722 41.6028C44.4722 40.6696 43.894 40.0387 42.8295 39.7759L41.6862 39.4998C41.2 39.3684 40.8714 39.1975 40.8714 38.7769C40.8714 38.33 41.2263 38.0146 41.8045 38.0146C42.409 38.0146 42.8032 38.3563 42.8032 38.9215H44.2619C44.2093 37.6334 43.25 36.8185 41.8439 36.8185C40.4509 36.8185 39.4128 37.6334 39.4128 38.8689C39.4128 39.7102 39.899 40.4067 41.1474 40.7353L42.2776 41.0245C42.6981 41.1428 42.9609 41.3399 42.9609 41.708C42.9609 42.2206 42.4747 42.4572 41.8833 42.4572C41.1737 42.4572 40.7663 42.1286 40.7663 41.5634H39.3076Z" fill="#152C4F"/>
<path d="M47.7975 43.6796C48.678 43.6796 49.5191 43.2722 49.9001 42.6676L50.0053 43.5088H51.5034V37.0157H49.9001V40.42C49.9001 41.5898 49.4533 42.247 48.4021 42.247C47.5873 42.247 47.0222 41.8527 47.0222 40.512V37.0157H45.4189V41.0772C45.4189 42.6281 46.26 43.6796 47.7975 43.6796Z" fill="#152C4F"/>
<path d="M54.5217 43.5087V39.7759C54.5217 38.7243 55.1393 38.2249 55.9015 38.2249C56.6637 38.2249 57.1631 38.7112 57.1631 39.6313V43.5087H58.7269V39.789C58.7269 38.7243 59.3314 38.2249 60.0936 38.2249C60.8689 38.2249 61.3683 38.7112 61.3683 39.6313V43.5087H62.919V39.2632C62.919 37.7649 62.0911 36.8185 60.5141 36.8185C59.5285 36.8185 58.7532 37.2917 58.4378 38.054C58.083 37.2917 57.3734 36.8185 56.2958 36.8185C55.5336 36.8185 54.8502 37.1734 54.4691 37.7517L54.3902 37.0157H52.9185V43.5087H54.5217Z" fill="#152C4F"/>
<path d="M29.5051 24.8771C27.393 28.6781 23.0925 30.4864 18.7441 30.4864H1.29736C19.4595 28.2162 32.1082 19.1351 33.7298 6.48645C35.3514 19.1351 48.0001 28.2162 66.1622 30.4864H48.7155C44.367 30.4864 40.0666 28.6781 37.9544 24.8771C35.6683 20.7632 34.2119 16.1081 33.7298 11.027C33.2477 16.1081 31.7912 20.7632 29.5051 24.8771Z" fill="#1A4688"/>
<path d="M19.5274 23.5338C18.5086 24.1074 17.4369 24.6461 16.3147 25.148C15.6773 22.9461 15.4428 20.6359 15.6298 18.3346C15.8773 15.2902 16.855 12.3551 18.4764 9.78954C20.0978 7.22394 22.3127 5.10688 24.9251 3.62594C27.5375 2.14501 30.4666 1.3459 33.4531 1.29939C36.4395 1.25289 39.3911 1.96043 42.0463 3.35933C44.7016 4.75824 46.9785 6.80531 48.6754 9.31927C50.3724 11.8332 51.4371 14.7365 51.7751 17.7717C52.0515 20.2544 51.8348 22.7629 51.1443 25.148C50.0222 24.6461 48.9505 24.1073 47.9316 23.5337C48.3612 21.79 48.4816 19.976 48.2814 18.1787C48.0089 15.731 47.1503 13.3899 45.7819 11.3626C44.4135 9.33542 42.5774 7.68461 40.4362 6.55655C38.295 5.42846 35.9148 4.85791 33.5066 4.89541C31.0983 4.93291 28.7362 5.57732 26.6297 6.77151C24.5231 7.96574 22.7369 9.67292 21.4294 11.7418C20.1219 13.8108 19.3335 16.1776 19.134 18.6326C18.9998 20.2828 19.1345 21.9387 19.5274 23.5338Z" fill="#7FB5E6"/>
</svg>
