<svg width="120" height="48" viewBox="0 0 120 48" fill="none" xmlns="http://www.w3.org/2000/svg">
<path d="M5.7241 5.082C6.0361 3.6012 7.5121 2.4 9.0157 2.4H17.1901L10.3921 34.5876H2.2177C0.712896 34.5876 -0.254304 33.3876 0.058896 31.9056L5.7241 5.082ZM32.9725 5.082C33.2857 3.6012 34.7605 2.4 36.2641 2.4H44.4385L37.6405 34.5876H29.4661C27.9613 34.5876 26.9941 33.3876 27.3073 31.9056L32.9725 5.082ZM87.4705 5.082C87.7825 3.6012 89.2561 2.4 90.7621 2.4H98.9365L92.1385 34.5876H83.9629C82.4581 34.5876 81.4921 33.3876 81.8053 31.9056L87.4705 5.082ZM47.1637 2.4H55.3381C56.8429 2.4 57.8101 3.6 57.4969 5.082L51.8317 31.9056C51.5197 33.3876 50.0449 34.5876 48.5401 34.5876H40.3657L47.1637 2.4ZM101.662 2.4H109.836C111.341 2.4 112.308 3.6 111.995 5.082L106.328 31.9056C106.016 33.3876 104.543 34.5876 103.038 34.5876H94.8625L101.662 2.4ZM60.2221 5.082C60.5341 3.6012 62.0077 2.4 63.5125 2.4H71.6881L64.8889 34.5876H56.7145C55.2097 34.5876 54.2425 33.3876 54.5569 31.9056L60.2209 5.082H60.2221ZM74.4121 2.4H82.5877C84.0925 2.4 85.0585 3.6 84.7453 5.082L76.2481 45.318C75.9337 46.7988 74.4601 48 72.9553 48H64.7797L74.4121 2.4ZM15.3829 23.8584H26.2825L24.5833 31.9056C24.2701 33.3876 22.7953 34.5876 21.2917 34.5876H13.1161L15.3817 23.8596L15.3829 23.8584ZM53.4241 37.2708H64.3225L62.0569 48H53.8825C52.3765 48 51.4105 46.8 51.7237 45.318L53.4241 37.2708ZM83.0089 39.7656L81.6289 46.3008C81.5689 46.5816 81.4753 46.6584 81.1897 46.6584H80.5621C80.2765 46.6584 80.2141 46.5816 80.2741 46.3008L81.6541 39.7656C81.7141 39.486 81.8077 39.408 82.0933 39.408H82.7209C83.0065 39.408 83.0689 39.486 83.0089 39.7656ZM84.8233 44.1744H84.6949C84.5581 44.1744 84.5101 44.2128 84.4825 44.3484L84.0697 46.3008C84.0097 46.5816 83.9149 46.6584 83.6305 46.6584H83.0017C82.7173 46.6584 82.6549 46.5816 82.7137 46.3008L84.0937 39.7656C84.1537 39.486 84.2497 39.408 84.5341 39.408H85.8301C87.3229 39.408 87.8881 39.9396 87.6121 41.244L87.3817 42.3372C87.1057 43.6428 86.3161 44.1744 84.8233 44.1744ZM85.2025 40.9356L84.8425 42.6468C84.8125 42.7824 84.8437 42.8208 84.9817 42.8208H85.1881C85.6681 42.8208 85.9261 42.6276 86.0305 42.1344L86.1745 41.448C86.2789 40.956 86.1037 40.7616 85.6225 40.7616H85.4161C85.2793 40.7616 85.2313 40.8 85.2025 40.9356ZM89.6881 41.9892L90.7081 43.1112C91.2433 43.6908 91.3177 44.0388 91.1809 44.6868L91.1449 44.8608C90.8869 46.0788 90.2725 46.7556 88.8481 46.7556C87.4249 46.7556 87.0733 46.1856 87.4021 44.628L87.4429 44.436C87.5029 44.1552 87.5977 44.0772 87.8821 44.0772H88.5493C88.8349 44.0772 88.8973 44.1552 88.8373 44.4348L88.7473 44.8608C88.6657 45.2472 88.7905 45.402 89.1337 45.402C89.4781 45.402 89.6653 45.258 89.7397 44.91L89.7781 44.7252C89.8357 44.454 89.8045 44.3196 89.5093 44.0004L88.5493 42.966C88.0117 42.396 87.9433 42.066 88.0801 41.418L88.1245 41.2068C88.3825 39.9888 88.9969 39.3108 90.4201 39.3108C91.8445 39.3108 92.1961 39.882 91.8673 41.4384L91.8265 41.6316C91.7665 41.9124 91.6717 41.9892 91.3873 41.9892H90.7189C90.4345 41.9892 90.3721 41.9124 90.4309 41.6316L90.5209 41.2068C90.6025 40.8192 90.4789 40.6656 90.1345 40.6656C89.7913 40.6656 89.6029 40.8096 89.5297 41.1576L89.4949 41.322C89.4349 41.6028 89.4661 41.7384 89.6881 41.9892ZM95.4385 39.7656C95.4985 39.486 95.5921 39.408 95.8777 39.408H96.5053C96.7909 39.408 96.8533 39.486 96.7933 39.7656L95.7661 44.6292C95.4373 46.1856 94.8457 46.7556 93.4213 46.7556C91.9981 46.7556 91.6465 46.1856 91.9753 44.628L93.0025 39.7656C93.0625 39.486 93.1573 39.408 93.4417 39.408H94.0705C94.3549 39.408 94.4173 39.486 94.3585 39.7656L93.2821 44.8608C93.2005 45.2472 93.3349 45.402 93.7081 45.402C94.0705 45.402 94.2805 45.2472 94.3621 44.8608L95.4385 39.7656ZM99.5257 43.7004C99.5293 43.7784 99.5545 43.7964 99.6037 43.7964C99.6517 43.7964 99.6865 43.7784 99.7225 43.7004L101.419 39.66C101.502 39.456 101.6 39.408 101.846 39.408H102.799C103.084 39.408 103.146 39.486 103.087 39.7656L101.707 46.3008C101.647 46.5816 101.551 46.6584 101.267 46.6584H100.816C100.531 46.6584 100.468 46.5816 100.528 46.3008L101.19 43.1688C101.208 43.0824 101.192 43.062 101.134 43.062C101.094 43.062 101.05 43.0824 101.026 43.1496L99.6553 46.3404C99.5569 46.572 99.4309 46.6584 99.1465 46.6584H98.8801C98.5849 46.6584 98.4961 46.572 98.4961 46.3404L98.4625 43.1484C98.4565 43.0812 98.4409 43.062 98.3917 43.062C98.3329 43.062 98.3089 43.0824 98.2909 43.1688L97.6297 46.3008C97.5697 46.5816 97.4761 46.6584 97.1905 46.6584H96.7393C96.4537 46.6584 96.3913 46.5816 96.4513 46.3008L97.8313 39.7656C97.8913 39.486 97.9861 39.408 98.2705 39.408H99.0865C99.4297 39.408 99.5401 39.486 99.5377 39.8244L99.5245 43.7004H99.5257ZM120 2.4C120 3.726 118.932 4.8 117.616 4.8C117.302 4.79906 116.991 4.73622 116.701 4.61508C116.411 4.49395 116.148 4.31688 115.926 4.094C115.705 3.87113 115.529 3.60681 115.41 3.31614C115.291 3.02548 115.23 2.71417 115.231 2.4C115.231 1.074 116.299 0 117.616 0C118.932 0 120 1.074 120 2.4Z" fill="#1D2633"/>
</svg>
