<svg width="48" height="48" viewBox="0 0 48 48" fill="none" xmlns="http://www.w3.org/2000/svg">
<g clip-path="url(#clip0_291_32)">
<path d="M48 24C48 37.2548 37.2548 48 24 48C10.7452 48 0 37.2548 0 24C0 10.7452 10.7452 0 24 0C37.2548 0 48 10.7452 48 24Z" fill="#1D2633"/>
<path d="M41.8282 30.1279C42.6387 30.1279 43.2151 30.9156 42.9103 31.6666C39.88 39.1339 32.5549 44.4 24 44.4C15.445 44.4 8.12001 39.1339 5.0896 31.6666C4.78482 30.9156 5.36131 30.1279 6.17181 30.1279H41.8282Z" fill="#EDEBDE"/>
<path d="M42.9103 16.3333C43.2151 17.0843 42.6387 17.872 41.8282 17.872H6.1718C5.36131 17.872 4.78483 17.0843 5.0896 16.3333C8.12 8.866 15.445 3.59998 24 3.59998C32.5549 3.59998 39.8799 8.866 42.9103 16.3333Z" fill="#EDEBDE"/>
<path d="M41.9022 22.2899C43.2505 22.2899 43.9011 23.2306 43.9011 24.3202V26.3662H42.4901V24.5633C42.4901 24.0694 42.3098 23.6618 41.7924 23.6618C41.275 23.6618 41.1026 24.0694 41.1026 24.5633V26.3662H39.6916V24.5633C39.6916 24.0694 39.5191 23.6618 39.0018 23.6618C38.4844 23.6618 38.3041 24.0694 38.3041 24.5633V26.3662H36.8931V24.3202C36.8931 23.2306 37.5437 22.2899 38.892 22.2899C39.6289 22.2899 40.1619 22.58 40.4049 23.0582C40.6636 22.58 41.2281 22.2899 41.9022 22.2899Z" fill="#EDEBDE"/>
<path d="M34.3575 25.112C34.8122 25.112 35.0081 24.6966 35.0081 24.2027V22.4468H36.4192V24.3752C36.4192 25.5275 35.745 26.4839 34.3575 26.4839C32.97 26.4839 32.2959 25.5275 32.2959 24.3752V22.4468H33.7069V24.2027C33.7069 24.6966 33.9029 25.112 34.3575 25.112Z" fill="#EDEBDE"/>
<path d="M30.2211 26.4916C29.3353 26.4916 28.763 26.1859 28.426 25.5901L29.4451 25.0179C29.5862 25.2687 29.7978 25.3941 30.1505 25.3941C30.4406 25.3941 30.5738 25.2922 30.5738 25.1668C30.5738 24.6886 28.5044 25.1746 28.5044 23.6539C28.5044 22.917 29.1315 22.3213 30.1976 22.3213C31.1305 22.3213 31.64 22.7759 31.8673 23.2149L30.8482 23.795C30.762 23.5598 30.4955 23.4187 30.229 23.4187C30.0251 23.4187 29.9154 23.505 29.9154 23.6226C29.9154 24.1086 31.9849 23.6617 31.9849 25.1355C31.9849 25.9585 31.1775 26.4916 30.2211 26.4916Z" fill="#EDEBDE"/>
<path d="M25.2914 28.1691H23.8804V24.3986C23.8804 23.1993 24.7819 22.3291 26.0361 22.3291C27.259 22.3291 28.1918 23.262 28.1918 24.3986C28.1918 25.6529 27.3609 26.4838 26.1145 26.4838C25.8244 26.4838 25.5344 26.3976 25.2914 26.2643V28.1691ZM26.0361 25.159C26.4829 25.159 26.7808 24.8141 26.7808 24.4065C26.7808 23.991 26.4829 23.6539 26.0361 23.6539C25.5893 23.6539 25.2914 23.991 25.2914 24.4065C25.2914 24.8141 25.5893 25.159 26.0361 25.159Z" fill="#EDEBDE"/>
<path d="M22.467 22.0313C22.0045 22.0313 21.6204 21.6472 21.6204 21.1847C21.6204 20.7221 22.0045 20.338 22.467 20.338C22.9295 20.338 23.3136 20.7221 23.3136 21.1847C23.3136 21.6472 22.9295 22.0313 22.467 22.0313ZM21.7615 22.4467H23.1725V26.3662H21.7615V22.4467Z" fill="#EDEBDE"/>
<path d="M19.0542 26.4838C17.8313 26.4838 16.8984 25.5431 16.8984 24.3986C16.8984 23.262 17.8313 22.3213 19.0542 22.3213C20.277 22.3213 21.2099 23.262 21.2099 24.3986C21.2099 25.5431 20.277 26.4838 19.0542 26.4838ZM19.0542 25.159C19.501 25.159 19.7989 24.814 19.7989 24.4065C19.7989 23.991 19.501 23.6461 19.0542 23.6461C18.6074 23.6461 18.3095 23.991 18.3095 24.4065C18.3095 24.814 18.6074 25.159 19.0542 25.159Z" fill="#EDEBDE"/>
<path d="M14.2342 28.2867C13.2621 28.2867 12.5566 27.8556 12.196 27.0874L13.3641 26.4603C13.4895 26.7268 13.7247 27.0012 14.2107 27.0012C14.7202 27.0012 15.0573 26.6798 15.0964 26.1153C14.9083 26.28 14.6104 26.4054 14.1636 26.4054C13.074 26.4054 12.196 25.5666 12.196 24.3908C12.196 23.2541 13.1289 22.3291 14.3518 22.3291C15.606 22.3291 16.5075 23.1993 16.5075 24.3986V25.9508C16.5075 27.3617 15.5276 28.2867 14.2342 28.2867ZM14.3283 25.0806C14.7516 25.0806 15.0729 24.7905 15.0729 24.3594C15.0729 23.9361 14.7516 23.6539 14.3283 23.6539C13.9128 23.6539 13.5835 23.9361 13.5835 24.3594C13.5835 24.7905 13.9128 25.0806 14.3283 25.0806Z" fill="#EDEBDE"/>
<path d="M9.80247 26.4838C8.57961 26.4838 7.64673 25.5431 7.64673 24.3986C7.64673 23.262 8.57961 22.3213 9.80247 22.3213C11.0253 22.3213 11.9582 23.262 11.9582 24.3986C11.9582 25.5431 11.0253 26.4838 9.80247 26.4838ZM9.80247 25.159C10.2493 25.159 10.5472 24.814 10.5472 24.4065C10.5472 23.991 10.2493 23.6461 9.80247 23.6461C9.35565 23.6461 9.05775 23.991 9.05775 24.4065C9.05775 24.814 9.35565 25.159 9.80247 25.159Z" fill="#EDEBDE"/>
<path d="M5.0774 21.075V25.0336H7.4134V26.3662H4.88143C3.98779 26.3662 3.6272 25.8959 3.6272 25.1512V21.075H5.0774Z" fill="#EDEBDE"/>
<path d="M20.3999 3.91662C21.5685 3.70855 22.7715 3.59998 24 3.59998C25.2283 3.59998 26.4313 3.70855 27.5999 3.91661V17.872H20.3999V3.91662Z" fill="#AC2828"/>
<path d="M27.6003 30.1279H20.3997C20.3846 33.2587 19.8141 36.3622 18.7146 39.2943L17.2312 43.2501C19.3493 43.9949 21.6273 44.4 24 44.4C26.3727 44.4 28.6508 43.9949 30.7688 43.2501L29.2854 39.2943C28.1859 36.3622 27.6155 33.2587 27.6003 30.1279Z" fill="#AC2828"/>
<path d="M27.6001 3.91663C30.2046 4.38036 32.6381 5.33833 34.8001 6.69012V17.872H27.6001V3.91663Z" fill="#306A9F"/>
<path d="M30.7688 43.2501C34.0433 42.0988 36.9354 40.1356 39.2035 37.6022L38.8496 37.3769C36.3634 35.7948 34.8438 33.0688 34.8009 30.1279H27.6003C27.6155 33.2587 28.1859 36.3622 29.2854 39.2943L30.7688 43.2501Z" fill="#306A9F"/>
<path d="M13.2 6.69012C15.3619 5.33834 17.7954 4.38036 20.4 3.91663V17.872H13.2V6.69012Z" fill="#DEB038"/>
<path d="M13.199 30.1279H20.3996C20.3845 33.2453 19.8189 36.3357 18.7286 39.2568L17.2311 43.2501C13.9566 42.0988 11.0646 40.1356 8.79639 37.6022L9.15033 37.3769C11.6365 35.7948 13.1561 33.0688 13.199 30.1279Z" fill="#DEB038"/>
</g>
<defs>
<clipPath id="clip0_291_32">
<rect width="48" height="48" fill="white"/>
</clipPath>
</defs>
</svg>
