<svg width="200" height="48" viewBox="0 0 200 48" fill="none" xmlns="http://www.w3.org/2000/svg">
<path d="M60.0322 34.3296H74.0248V30.115H65.0055V14.2399H60.0322V34.3296Z" fill="#2F234F"/>
<path d="M82.3149 31.5199C80.32 31.5199 79.2804 29.7778 79.2804 27.1647C79.2804 24.5517 80.32 22.7815 82.3149 22.7815C84.3098 22.7815 85.3776 24.5517 85.3776 27.1647C85.3776 29.7778 84.3098 31.5199 82.3149 31.5199ZM82.343 34.7792C86.9791 34.7792 90.0137 31.4918 90.0137 27.1647C90.0137 22.8377 86.9791 19.5503 82.343 19.5503C77.735 19.5503 74.6443 22.8377 74.6443 27.1647C74.6443 31.4918 77.735 34.7792 82.343 34.7792Z" fill="#2F234F"/>
<path d="M98.0383 39.3029C100.174 39.3029 102.056 38.8252 103.321 37.7013C104.473 36.6617 105.231 35.0883 105.231 32.9248V19.9437H100.848V21.489H100.792C99.9489 20.2809 98.6564 19.5222 96.7458 19.5222C93.1774 19.5222 90.7048 22.5006 90.7048 26.7152C90.7048 31.1265 93.7113 33.5429 96.9425 33.5429C98.6845 33.5429 99.7803 32.8405 100.623 31.8851H100.736V33.3181C100.736 35.0602 99.9208 36.0717 97.9821 36.0717C96.4648 36.0717 95.7062 35.4254 95.4533 34.6668H91.0139C91.4635 37.6732 94.0765 39.3029 98.0383 39.3029ZM98.0102 30.1431C96.2963 30.1431 95.1723 28.7382 95.1723 26.5747C95.1723 24.3831 96.2963 22.9782 98.0102 22.9782C99.9208 22.9782 100.932 24.6079 100.932 26.5466C100.932 28.5696 100.005 30.1431 98.0102 30.1431Z" fill="#2F234F"/>
<path d="M114.244 31.5199C112.249 31.5199 111.209 29.7778 111.209 27.1647C111.209 24.5517 112.249 22.7815 114.244 22.7815C116.239 22.7815 117.306 24.5517 117.306 27.1647C117.306 29.7778 116.239 31.5199 114.244 31.5199ZM114.272 34.7792C118.908 34.7792 121.942 31.4918 121.942 27.1647C121.942 22.8377 118.908 19.5503 114.272 19.5503C109.664 19.5503 106.573 22.8377 106.573 27.1647C106.573 31.4918 109.664 34.7792 114.272 34.7792Z" fill="#2F234F"/>
<path d="M123.28 34.3296H127.86V19.9437H123.28V34.3296ZM123.28 17.9487H127.86V14.2399H123.28V17.9487Z" fill="#2F234F"/>
<path d="M129.847 39.0781H134.427V32.8405H134.483C135.382 34.0487 136.703 34.7792 138.557 34.7792C142.322 34.7792 144.823 31.8009 144.823 27.1367C144.823 22.8096 142.491 19.5222 138.67 19.5222C136.703 19.5222 135.298 20.3932 134.314 21.6857H134.23V19.9437H129.847V39.0781ZM137.377 31.2389C135.41 31.2389 134.286 29.6373 134.286 27.3052C134.286 24.9731 135.298 23.203 137.293 23.203C139.26 23.203 140.187 24.8327 140.187 27.3052C140.187 29.7497 139.119 31.2389 137.377 31.2389Z" fill="#2F234F"/>
<path d="M152.28 34.7792C156.045 34.7792 158.826 33.1495 158.826 30.0026C158.826 26.3218 155.848 25.6756 153.319 25.2541C151.493 24.9169 149.863 24.7765 149.863 23.7649C149.863 22.8658 150.734 22.4444 151.858 22.4444C153.122 22.4444 153.993 22.8377 154.162 24.1302H158.377C158.152 21.2924 155.96 19.5222 151.886 19.5222C148.486 19.5222 145.677 21.0957 145.677 24.1302C145.677 27.5019 148.346 28.1763 150.847 28.5977C152.757 28.9349 154.499 29.0754 154.499 30.3679C154.499 31.2951 153.628 31.8009 152.251 31.8009C150.734 31.8009 149.779 31.0984 149.61 29.6654H145.283C145.424 32.8405 148.065 34.7792 152.28 34.7792Z" fill="#2F234F"/>
<path d="M165.047 34.751C167.042 34.751 168.307 33.9643 169.346 32.5594H169.431V34.3296H173.814V19.9436H169.234V27.9795C169.234 29.6935 168.279 30.8736 166.705 30.8736C165.244 30.8736 164.542 30.0025 164.542 28.4291V19.9436H159.99V29.3844C159.99 32.5875 161.732 34.751 165.047 34.751Z" fill="#2F234F"/>
<path d="M175.806 34.3296H180.386V26.2656C180.386 24.5517 181.229 23.3435 182.662 23.3435C184.039 23.3435 184.685 24.2426 184.685 25.788V34.3296H189.265V26.2656C189.265 24.5517 190.08 23.3435 191.541 23.3435C192.918 23.3435 193.564 24.2426 193.564 25.788V34.3296H198.144V24.9731C198.144 21.7419 196.514 19.5222 193.255 19.5222C191.401 19.5222 189.855 20.3089 188.731 22.051H188.675C187.945 20.5056 186.512 19.5222 184.629 19.5222C182.55 19.5222 181.173 20.5056 180.274 21.9948H180.19V19.9437H175.806V34.3296Z" fill="#2F234F"/>
<path fill-rule="evenodd" clip-rule="evenodd" d="M23.5332 47.2076C36.4649 47.2076 46.9479 36.7246 46.9479 23.793C46.9479 10.8615 36.4649 0.378418 23.5332 0.378418C10.6017 0.378418 0.118652 10.8615 0.118652 23.793C0.118652 36.7246 10.6017 47.2076 23.5332 47.2076ZM27.1473 18.4692C29.1432 16.4732 29.1432 13.2372 27.1473 11.2412C25.1513 9.24528 21.9153 9.24528 19.9193 11.2412C17.9234 13.2372 17.9234 16.4732 19.9193 18.4692L23.5332 22.0831L27.1473 18.4692ZM28.8571 27.4071C30.8531 29.403 34.0891 29.403 36.0851 27.4071C38.081 25.4111 38.081 22.1751 36.0851 20.1791C34.0891 18.1832 30.8531 18.1832 28.8571 20.1791L25.2432 23.7931L28.8571 27.4071ZM27.1473 36.3449C29.1432 34.3489 29.1432 31.1129 27.1473 29.1169L23.5332 25.503L19.9193 29.1169C17.9234 31.1129 17.9234 34.3489 19.9193 36.3449C21.9153 38.3409 25.1513 38.3409 27.1473 36.3449ZM10.9814 27.4071C8.98553 25.4111 8.98553 22.1751 10.9814 20.1791C12.9775 18.1832 16.2135 18.1832 18.2095 20.1791L21.8234 23.7931L18.2095 27.4071C16.2135 29.403 12.9775 29.403 10.9814 27.4071Z" fill="#7F57F1"/>
</svg>
