<svg width="147" height="48" viewBox="0 0 147 48" fill="none" xmlns="http://www.w3.org/2000/svg">
<path fill-rule="evenodd" clip-rule="evenodd" d="M72.6756 7.72958C74.0634 6.28155 76.3134 6.28155 77.7012 7.72958C79.089 9.17772 79.089 11.5256 77.7012 12.9737L69.2403 21.8025C66.8111 18.4053 67.075 13.5738 70.032 10.4883L72.6756 7.72958Z" fill="#4F9E91"/>
<path fill-rule="evenodd" clip-rule="evenodd" d="M84.771 27.6488C86.159 29.0968 86.159 31.4447 84.771 32.8928C83.384 34.3409 81.1336 34.3409 79.7458 32.8928L71.2849 24.0641C74.5405 21.5293 79.1707 21.8046 82.1277 24.8901L84.771 27.6488Z" fill="#EBE1C5"/>
<path fill-rule="evenodd" clip-rule="evenodd" d="M65.6821 40.2703C64.2944 41.7184 62.0443 41.7184 60.6566 40.2703C59.2688 38.8221 59.2688 36.4743 60.6566 35.0262L69.1174 26.1975C71.5466 29.5947 71.2828 34.4262 68.3258 37.5116L65.6821 40.2703Z" fill="#EBCC6E"/>
<path fill-rule="evenodd" clip-rule="evenodd" d="M53.5865 20.3512C52.1987 18.9031 52.1987 16.5552 53.5865 15.1071C54.9743 13.659 57.2243 13.659 58.6121 15.1071L67.073 23.9359C63.8174 26.4707 59.1871 26.1953 56.2302 23.1098L53.5865 20.3512Z" fill="#ED834E"/>
<path fill-rule="evenodd" clip-rule="evenodd" d="M70.7849 39.189C72.8312 36.8149 73.7823 33.777 73.638 30.786L77.7014 35.0261C77.7115 35.0366 77.7217 35.0472 77.7319 35.0577V38.0848C77.7319 40.1328 76.1409 41.7929 74.1783 41.7929C72.5842 41.7929 71.2353 40.6977 70.7849 39.189Z" fill="#ED834E"/>
<path fill-rule="evenodd" clip-rule="evenodd" d="M54.6226 25.6757C56.8977 27.811 59.809 28.8035 62.6754 28.6529L58.6121 32.893C58.6019 32.9035 58.5918 32.9142 58.5818 32.9247H55.6808C53.7182 32.9248 52.1272 31.2645 52.1272 29.2166C52.1272 27.5533 53.1768 26.1456 54.6226 25.6757Z" fill="#4F9E91"/>
<path fill-rule="evenodd" clip-rule="evenodd" d="M83.735 22.3243C81.4601 20.189 78.5488 19.1965 75.6824 19.347L79.7457 15.107C79.7559 15.0965 79.7659 15.0858 79.776 15.0752H82.6771C84.64 15.0752 86.231 16.7355 86.231 18.7834C86.231 20.4468 85.181 21.8544 83.735 22.3243Z" fill="#EBCC6E"/>
<path fill-rule="evenodd" clip-rule="evenodd" d="M67.573 8.81079C65.5266 11.1848 64.5756 14.2227 64.7198 17.2138L60.6565 12.9738C60.6463 12.9632 60.6362 12.9527 60.626 12.9421V9.915C60.626 7.86706 62.217 6.20679 64.1796 6.20679C65.7737 6.20679 67.1226 7.30213 67.573 8.81079Z" fill="#EBE1C5"/>
<path fill-rule="evenodd" clip-rule="evenodd" d="M64.1798 3.18994C60.6204 3.18994 57.7349 6.2009 57.7349 9.91505V11.223C55.5935 10.6392 53.2203 11.2227 51.5422 12.9738C49.0253 15.6001 49.0253 19.8582 51.5422 22.4846L52.4285 23.4094C50.5187 24.5766 49.2361 26.7403 49.2361 29.2166C49.2361 32.9307 52.1216 35.9417 55.681 35.9417H56.9344C56.3749 38.1762 56.9341 40.6526 58.6122 42.4035C61.1291 45.0299 65.2098 45.0299 67.7267 42.4035L70.3703 39.645C72.7024 37.2115 73.7916 33.9721 73.6379 30.786L77.7014 35.026C80.2183 37.6524 84.2991 37.6524 86.8161 35.026C89.3331 32.3997 89.3331 28.1416 86.8161 25.5154L85.9301 24.5906C87.8391 23.4234 89.1221 21.2597 89.1221 18.7835C89.1221 15.0693 86.2361 12.0583 82.6771 12.0583H81.4236C81.9832 9.82375 81.4239 7.34737 79.7458 5.59631C77.229 2.96998 73.1483 2.96998 70.6314 5.59631L67.9877 8.35495C65.6556 10.7884 64.5664 14.0277 64.7201 17.2139L60.6567 12.9738C60.6465 12.9633 60.6364 12.9527 60.6262 12.9422V9.91505C60.6262 7.86712 62.2172 6.20695 64.1798 6.20695C65.7739 6.20695 67.1228 7.30219 67.5732 8.81085C67.7067 8.65599 67.8449 8.50396 67.9877 8.35495L69.745 6.52114C68.6264 4.52831 66.5529 3.18994 64.1798 3.18994ZM79.7761 15.0754C79.766 15.0859 79.756 15.0965 79.7458 15.1071L75.6825 19.347C78.549 19.1966 81.4602 20.1889 83.7351 22.3244C85.1811 21.8544 86.2311 20.4468 86.2311 18.7835C86.2311 16.7355 84.6401 15.0754 82.6771 15.0754H79.7761ZM58.5818 32.9247C58.5919 32.914 58.602 32.9034 58.6122 32.8929L62.6755 28.6528C59.8091 28.8034 56.8979 27.8109 54.6228 25.6756C53.177 26.1456 52.1273 27.5532 52.1273 29.2166C52.1273 31.2645 53.7184 32.9247 55.681 32.9247H58.5818ZM74.1783 44.8101C71.8051 44.8101 69.7316 43.4716 68.613 41.4788L70.3703 39.645C70.5132 39.496 70.6513 39.3439 70.7848 39.1891C71.2352 40.6978 72.5841 41.7931 74.1783 41.7931C76.1409 41.7931 77.7319 40.1329 77.7319 38.085V35.0579C78.5647 35.9155 79.5657 36.4886 80.6232 36.7769V38.085C80.6232 41.7991 77.7377 44.8101 74.1783 44.8101ZM77.7014 7.72959C76.3136 6.28156 74.0636 6.28156 72.6758 7.72959L70.0321 10.4882C67.0752 13.5738 66.8113 18.4053 69.2405 21.8025L77.7014 12.9737C79.0892 11.5255 79.0892 9.17773 77.7014 7.72959ZM84.7711 32.8927C86.1591 31.4446 86.1591 29.0968 84.7711 27.6486L82.1277 24.89C79.1708 21.8045 74.5405 21.5292 71.2849 24.064L79.7458 32.8927C81.1336 34.3409 83.3841 34.3409 84.7711 32.8927ZM65.6822 40.2702C64.2944 41.7184 62.0444 41.7184 60.6566 40.2702C59.2689 38.8221 59.2689 36.4743 60.6566 35.0261L69.1175 26.1974C71.5467 29.5945 71.2828 34.4261 68.3259 37.5116L65.6822 40.2702ZM53.5866 15.1071C52.1989 16.5552 52.1989 18.903 53.5866 20.3512L56.2303 23.1098C59.1873 26.1953 63.8175 26.4707 67.0731 23.9358L58.6122 15.1071C57.2244 13.659 54.9744 13.659 53.5866 15.1071Z" fill="#3D3A2C"/>
<path d="M1.53271 16.7893H4.69331V27.0375H10.1217V29.8138H1.53271V16.7893Z" fill="#3D3A2C"/>
<path d="M15.8603 30.0934C14.8008 30.0934 13.8722 29.8946 13.0746 29.4972C12.277 29.0872 11.658 28.5282 11.2175 27.8202C10.789 27.0997 10.5747 26.2737 10.5747 25.3419C10.5747 24.4103 10.789 23.5905 11.2175 22.8825C11.658 22.162 12.277 21.603 13.0746 21.2055C13.8722 20.7955 14.8008 20.5906 15.8603 20.5906C16.9198 20.5906 17.8483 20.7955 18.6459 21.2055C19.4435 21.603 20.0566 22.162 20.4851 22.8825C20.9256 23.5905 21.1458 24.4103 21.1458 25.3419C21.1458 26.2737 20.9256 27.0997 20.4851 27.8202C20.0566 28.5282 19.4435 29.0872 18.6459 29.4972C17.8483 29.8946 16.9198 30.0934 15.8603 30.0934ZM15.8603 27.5407C16.4912 27.5407 16.9912 27.3481 17.3602 26.9631C17.7412 26.5655 17.9316 26.0252 17.9316 25.3419C17.9316 24.6588 17.7412 24.1246 17.3602 23.7396C16.9912 23.342 16.4912 23.1433 15.8603 23.1433C15.2293 23.1433 14.7234 23.342 14.3425 23.7396C13.9734 24.1246 13.7889 24.6588 13.7889 25.3419C13.7889 26.0252 13.9734 26.5655 14.3425 26.9631C14.7234 27.3481 15.2293 27.5407 15.8603 27.5407Z" fill="#3D3A2C"/>
<path d="M27.0492 34.0996C26.4778 34.0996 25.9004 34.0436 25.3171 33.9319C24.7457 33.82 24.2516 33.671 23.835 33.4846V31.2114C24.7754 31.6337 25.8468 31.8449 27.0492 31.8449C27.9182 31.8449 28.5432 31.6585 28.9241 31.2859C29.317 30.9133 29.5134 30.3667 29.5134 29.6462V29.1059C29.1682 29.4164 28.7396 29.6586 28.2277 29.8326C27.7277 30.0065 27.192 30.0934 26.6206 30.0934C25.7159 30.0934 24.9183 29.8946 24.2278 29.4972C23.5374 29.0996 22.9957 28.5406 22.6029 27.8202C22.2219 27.0997 22.0315 26.2737 22.0315 25.3419C22.0315 24.3979 22.2219 23.5656 22.6029 22.8452C22.9838 22.1247 23.5195 21.5719 24.21 21.1868C24.9004 20.7894 25.6921 20.5906 26.5849 20.5906C27.8111 20.5906 28.8229 20.9819 29.6205 21.7645V20.87H32.6562V29.1991C32.6562 30.7518 32.1978 31.9568 31.2812 32.8139C30.3765 33.671 28.9658 34.0996 27.0492 34.0996ZM27.4063 27.5593C27.8944 27.5593 28.3289 27.4289 28.7098 27.168C29.0908 26.9072 29.3586 26.5594 29.5134 26.1246V24.5594C29.3467 24.1246 29.0729 23.783 28.692 23.5345C28.311 23.2738 27.8825 23.1433 27.4063 23.1433C26.7635 23.1433 26.2456 23.342 25.8528 23.7396C25.4599 24.1246 25.2635 24.6525 25.2635 25.3234C25.2635 26.0065 25.4599 26.5531 25.8528 26.9631C26.2456 27.3606 26.7635 27.5593 27.4063 27.5593Z" fill="#3D3A2C"/>
<path d="M38.739 30.0934C37.6795 30.0934 36.751 29.8946 35.9534 29.4972C35.1558 29.0872 34.5367 28.5282 34.0963 27.8202C33.6677 27.0997 33.4534 26.2737 33.4534 25.3419C33.4534 24.4103 33.6677 23.5905 34.0963 22.8825C34.5367 22.162 35.1558 21.603 35.9534 21.2055C36.751 20.7955 37.6795 20.5906 38.739 20.5906C39.7985 20.5906 40.727 20.7955 41.5246 21.2055C42.3222 21.603 42.9353 22.162 43.3639 22.8825C43.8043 23.5905 44.0246 24.4103 44.0246 25.3419C44.0246 26.2737 43.8043 27.0997 43.3639 27.8202C42.9353 28.5282 42.3222 29.0872 41.5246 29.4972C40.727 29.8946 39.7985 30.0934 38.739 30.0934ZM38.739 27.5407C39.3699 27.5407 39.8699 27.3481 40.239 26.9631C40.6199 26.5655 40.8104 26.0252 40.8104 25.3419C40.8104 24.6588 40.6199 24.1246 40.239 23.7396C39.8699 23.342 39.3699 23.1433 38.739 23.1433C38.1081 23.1433 37.6021 23.342 37.2212 23.7396C36.8521 24.1246 36.6676 24.6588 36.6676 25.3419C36.6676 26.0252 36.8521 26.5655 37.2212 26.9631C37.6021 27.3481 38.1081 27.5407 38.739 27.5407Z" fill="#3D3A2C"/>
<path d="M94.4319 16.7893H97.5929V29.8138H94.4319V16.7893Z" fill="#3D3A2C"/>
<path d="M99.1931 20.87H102.229V21.7645C103.026 20.9819 104.038 20.5906 105.264 20.5906C106.157 20.5906 106.949 20.7894 107.639 21.1868C108.33 21.5719 108.865 22.1247 109.246 22.8452C109.627 23.5532 109.818 24.3793 109.818 25.3234C109.818 26.255 109.627 27.0873 109.246 27.8202C108.865 28.5406 108.33 29.0996 107.639 29.4972C106.961 29.8946 106.169 30.0934 105.264 30.0934C104.693 30.0934 104.145 30.0002 103.622 29.8139C103.11 29.64 102.681 29.3977 102.336 29.0872V33.8945H99.1931V20.87ZM104.443 27.5407C105.086 27.5407 105.604 27.342 105.996 26.9444C106.389 26.547 106.586 26.0065 106.586 25.3234C106.586 24.6401 106.389 24.1061 105.996 23.7209C105.604 23.3234 105.086 23.1247 104.443 23.1247C103.967 23.1247 103.538 23.2551 103.157 23.516C102.776 23.7644 102.503 24.1061 102.336 24.5408V26.1246C102.503 26.5594 102.776 26.9072 103.157 27.168C103.538 27.4165 103.967 27.5407 104.443 27.5407Z" fill="#3D3A2C"/>
<path d="M114.503 30.0934C113.813 30.0934 113.093 30.0189 112.343 29.8698C111.593 29.7332 110.997 29.5344 110.557 29.2736V26.8699C111.045 27.168 111.628 27.4165 112.307 27.6153C112.997 27.8015 113.628 27.8947 114.2 27.8947C114.616 27.8947 114.92 27.8636 115.11 27.8015C115.301 27.7394 115.396 27.6153 115.396 27.4289C115.396 27.2798 115.331 27.1618 115.2 27.0749C115.081 26.9755 114.854 26.8761 114.521 26.7767C114.2 26.665 113.825 26.547 113.396 26.4227C112.67 26.1991 112.099 25.9693 111.682 25.7333C111.265 25.4972 110.956 25.1991 110.753 24.8389C110.551 24.4787 110.45 24.0253 110.45 23.4787C110.45 22.5097 110.813 21.7893 111.539 21.3173C112.277 20.8328 113.283 20.5906 114.557 20.5906C115.176 20.5906 115.825 20.6589 116.503 20.7955C117.194 20.9322 117.711 21.1123 118.057 21.3359V23.7023C117.7 23.4539 117.223 23.2488 116.628 23.0874C116.045 22.9259 115.497 22.8452 114.985 22.8452C114.581 22.8452 114.265 22.8886 114.039 22.9756C113.813 23.0502 113.7 23.1868 113.7 23.3855C113.7 23.5719 113.813 23.7148 114.039 23.8141C114.265 23.9134 114.67 24.0377 115.253 24.1867C115.634 24.2862 115.795 24.3296 115.735 24.3172C116.497 24.5284 117.086 24.7644 117.503 25.0253C117.92 25.2861 118.211 25.5967 118.378 25.9569C118.557 26.3047 118.646 26.7519 118.646 27.2985C118.646 28.1556 118.289 28.8388 117.575 29.3481C116.872 29.845 115.848 30.0934 114.503 30.0934Z" fill="#3D3A2C"/>
<path d="M123.338 30.0934C122.16 30.0934 121.273 29.7518 120.678 29.0686C120.095 28.3853 119.803 27.4848 119.803 26.3668V20.87H122.946V25.9941C122.946 27.0252 123.392 27.5406 124.285 27.5406C124.69 27.5406 125.059 27.4413 125.392 27.2425C125.725 27.0437 125.999 26.7519 126.213 26.3668V20.87H129.356V29.8139H126.321V28.845C125.952 29.2549 125.505 29.5654 124.981 29.7766C124.458 29.9878 123.91 30.0934 123.338 30.0934Z" fill="#3D3A2C"/>
<path d="M130.965 20.87H133.876V21.839C134.233 21.4415 134.644 21.1372 135.108 20.926C135.572 20.7023 136.066 20.5906 136.59 20.5906C137.233 20.5906 137.745 20.6899 138.126 20.8887C138.519 21.0875 138.834 21.3856 139.072 21.7831C139.429 21.4104 139.864 21.1185 140.376 20.9074C140.888 20.6962 141.406 20.5906 141.929 20.5906C143.06 20.5906 143.864 20.895 144.34 21.5036C144.816 22.0999 145.054 22.9631 145.054 24.0935V29.8139H142.054V24.5594C142.054 24.0625 141.965 23.7023 141.786 23.4787C141.608 23.2551 141.31 23.1433 140.894 23.1433C140.358 23.1433 139.923 23.342 139.59 23.7396C139.602 23.9507 139.608 24.2737 139.608 24.7085V29.8139H136.608V24.429C136.608 23.9694 136.531 23.6401 136.376 23.4415C136.221 23.2427 135.947 23.1433 135.555 23.1433C134.947 23.1433 134.424 23.4973 133.983 24.2054V29.8139H130.965V20.87Z" fill="#3D3A2C"/>
</svg>
